<?xml version="1.0" encoding="utf-8"?>
<!-- Generator: Adobe Illustrator 24.0.2, SVG Export Plug-In . SVG Version: 6.00 Build 0)  -->
<svg version="1.1" id="Layer_1" xmlns="http://www.w3.org/2000/svg" xmlns:xlink="http://www.w3.org/1999/xlink" x="0px" y="0px"
	 viewBox="0 0 997.21 522.38" style="enable-background:new 0 0 997.21 522.38;" xml:space="preserve">
<style type="text/css">
	.st0{fill:#3EC0F0;}
	.st1{fill:#D40F3B;}
</style>
<path class="st0" d="M589.07,146.7l16.22-36.38c14.54-33.03,21.81-50.75,21.81-53.17c0-2.61-1.35-4.85-4.07-6.72
	c-2.71-1.86-5.93-2.79-9.67-2.79c-4.48,0-7.67,1.07-9.54,3.22c-1.87,2.14-4.39,7.5-7.57,16.07
	c-14.55,39.41-32.16,84.44-52.81,135.04l11.79,21.5L589.07,146.7z"/>
<g>
	<path class="st1" d="M420.7,53.45L420.7,53.45L420.7,53.45 M406.02,80.9l24.95,48.63c0.02,0.05,0.05,0.09,0.07,0.14
		c23.12,44.18,47.38,87.68,72.1,129.29c2.63,4.43,6.76,7.71,11.52,9.36L448.5,418.37l-50.77-95.44c-0.07-0.13-0.14-0.25-0.21-0.38
		l-52.04-92.68c-3.01-5.37-8.15-9.13-14.02-10.47l28.6-52.46c0.03-0.06,0.06-0.11,0.09-0.17l19.04-35.78l12.88-24.03L406.02,80.9
		 M406.32,42.91c-0.87,0-1.74,0.43-2.23,1.31c-2.29,4.13-4.69,8.62-7.18,13.47l-21.59,40.28l-12.89,24.05l-19.06,35.81l-41.41,75.96
		l12.62,23.38l9.84-17.98c0.49-0.89,1.37-1.33,2.25-1.33c0.87,0,1.74,0.44,2.23,1.31l52.04,92.69l66.67,125.32
		c0.48,0.91,1.37,1.36,2.26,1.36c0.95,0,1.9-0.52,2.35-1.53l103-233.55l-11.79-21.5c-6.19,15.16-12.63,30.8-19.37,46.96
		c-0.44,1.05-1.41,1.59-2.39,1.59c-0.85,0-1.69-0.41-2.19-1.25c-24.66-41.5-48.53-84.29-71.61-128.4l-39.27-76.55
		C408.13,43.38,407.22,42.91,406.32,42.91L406.32,42.91z"/>
</g>
<path class="st0" d="M293.96,248.47c-1.01,1.85-3.69,1.77-4.57-0.14c-14.15-30.69-32.96-75.31-56.4-133.85l-23.46-59.91
	c-0.38-0.98-1.33-1.63-2.39-1.63H37.8c-1.87,0-3.11,1.94-2.33,3.64c21.84,46.28,44.53,98.42,68.07,156.44l47.62,115.59l51.95,128.02
	c0.83,2.03,3.66,2.16,4.66,0.2l10.87-21.29l65.19-122.15l30.75-56.22l-12.62-23.38L293.96,248.47z"/>
<path class="st0" d="M689.17,92.07c0.46-1.1,1.53-1.82,2.73-1.84l241.16-3.34c7.49-0.1,9.99-9.65,4.8-18.32l-2.5-4.18
	c-2.92-4.89-7.57-8.11-11.83-8.2l-240.79-5.19c-0.64-0.08-1.28-0.14-1.95-0.16l-5.89-0.1c-0.38-0.01-0.74,0.05-1.11,0.06l-4.84-0.1
	c-3.75-0.08-6.3,2.19-7.33,5.55c-0.11,0.37-0.29,0.72-0.53,1.03c-0.87,1.09-1.62,2.29-2.21,3.59l-87.28,192.44l28.26,51.55
	L689.17,92.07z"/>
<path class="st0" d="M914.56,460.09c7.99-0.01,15.21-4.75,18.38-12.08c5.62-13.01-3.67-27.59-17.84-27.98l-256-7.09l25.94,47.32
	L914.56,460.09z"/>
<g>
	<path class="st1" d="M573.11,293.53l6.78,12.37l-39.11,93.17c-2.68,6.39-2.04,13.69,1.72,19.51c3.76,5.83,10.14,9.42,17.07,9.61
		l88.71,2.46l6.38,11.63l-129.43,0.09c-0.75,0-1.51,0.05-2.25,0.14l-7.83-0.13c-0.1,0-0.2,0-0.31,0c0,0-0.01,0-0.01,0l-9.22,0.01
		l3.86-8.5c0.04-0.1,0.09-0.19,0.13-0.29l3.12-7.22c0.4-0.64,0.75-1.31,1.06-2L573.11,293.53 M512.74,426.29L512.74,426.29
		L512.74,426.29 M571.59,253.31l-74.21,163.62c-0.43,0.7-0.82,1.44-1.16,2.21l-3.16,7.3l-4.24,9.35c-1.03,2.28-1.51,4.62-1.54,6.91
		c-0.36,9.24,6.98,17.68,17.02,17.68c0,0,0.01,0,0.01,0l10.51-0.01l7.9,0.13c0.09,0,0.19,0,0.28,0c0.75,0,1.49-0.05,2.21-0.14
		l159.8-0.11l-25.94-47.32l-99.03-2.74c-2.11-0.06-3.5-2.22-2.68-4.16l42.47-101.17L571.59,253.31L571.59,253.31z"/>
</g>
</svg>
